# xmcd CD database file
#
# Track frame offsets:
#	150
#	12930
#	26045
#	40905
#	53860
#	66780
#	80540
#	93617
#	106060
#	121177
#	136025
#	150922
#	162360
#	173645
#	188550
#	201750
#	212847
#	226437
#	238622
#	253647
#
# Disc length: 3570 seconds
#
# Revision: 0
# Processed by: cddbd v1.5.1PL0 Copyright (c) Steve Scherf et al.
# Submitted via: CDex 1.50beta10
#
DISCID=fe0df014
DTITLE=Stéphane Grappelli - Masters Of Jazz CD1
DYEAR=1900
DGENRE=Jazz
TTITLE0=Alabamy Bound
TTITLE1=My Sweet
TTITLE2=Lady Be Good
TTITLE3=Rose Room
TTITLE4=Bill Street Blues
TTITLE5=After You've Gone
TTITLE6=It Had To Be You
TTITLE7=Fiddle's Blues
TTITLE8=Improvisation...
TTITLE9=Jive Bomber
TTITLE10=Body And Soul
TTITLE11=Undecided
TTITLE12=Tiger Rag
TTITLE13=Stephane's Blues
TTITLE14=Noel Brings The Swing
TTITLE15=Dinah
TTITLE16=Daphné
TTITLE17=Alexander's Ragtime Band
TTITLE18=Mind The Handle's Hot
TTITLE19=Love's Melody
EXTD=
EXTT0=
EXTT1=
EXTT2=
EXTT3=
EXTT4=
EXTT5=
EXTT6=
EXTT7=
EXTT8=
EXTT9=
EXTT10=
EXTT11=
EXTT12=
EXTT13=
EXTT14=
EXTT15=
EXTT16=
EXTT17=
EXTT18=
EXTT19=
PLAYORDER=
